<svg width="92" height="92" viewBox="0 0 92 92" fill="none" xmlns="http://www.w3.org/2000/svg">
<g clip-path="url(#clip0)">
<path d="M26.4427 39.6581C30.6385 40.8593 35.0324 41.6265 39.5062 41.9382C41.6526 42.0835 43.8368 42.1572 46.0001 42.1572C48.1633 42.1572 50.3476 42.0835 52.4974 41.9382C56.9678 41.6265 61.3616 40.8593 65.5575 39.6581C78.727 35.8814 80.0529 32.8846 79.737 30.6971C79.1232 26.3962 71.3194 25.0078 64.332 24.6365V14.785C64.332 12.9022 63.4876 11.1486 62.0143 9.97349C60.539 8.79554 58.6355 8.36241 56.7944 8.7808L50.3497 10.2494C47.5007 10.8994 44.5008 10.8994 41.6505 10.2494L35.2057 8.7808C33.3647 8.36311 31.4612 8.79554 29.9858 9.97349C28.5125 11.1486 27.6681 12.9022 27.6681 14.785V24.6365C20.6808 25.0078 12.8769 26.3961 12.2631 30.695C11.9473 32.8846 13.2731 35.8814 26.4427 39.6581ZM30.5431 25.9174L31.0112 26.0064C35.9841 26.9506 40.9921 27.4223 46.0001 27.4223C51.008 27.4223 56.016 26.9506 60.9889 26.0064L61.4571 25.9174V29.0559L60.4526 29.2468C50.8628 31.0671 41.1374 31.0671 31.5475 29.2468L30.5431 29.0559V25.9174ZM31.7784 12.2213C32.5666 11.593 33.5844 11.3599 34.567 11.5846L41.0117 13.0532C44.2783 13.7959 47.719 13.7973 50.9884 13.0532L57.4331 11.5846C58.4193 11.3599 59.4335 11.593 60.2217 12.2213C61.0064 12.8475 61.4571 13.7818 61.4571 14.785V22.9907L60.4526 23.1816C50.8628 25.0025 41.1374 25.0011 31.5475 23.1816L30.5431 22.9907V14.785C30.5431 13.7818 30.9937 12.8475 31.7784 12.2213ZM27.6681 27.5188V29.9916C27.6681 30.8944 28.3546 31.6399 29.2327 31.734L31.0112 32.0717C35.9841 33.0158 40.9921 33.4876 46.0001 33.4876C51.008 33.4876 56.016 33.0158 60.9889 32.0717L62.7675 31.734C63.6455 31.6399 64.332 30.8944 64.332 29.9916V27.5188C72.3102 27.969 76.6792 29.6182 76.8916 31.1064C76.8951 31.1282 76.8733 33.4216 64.7658 36.8937C60.7629 38.04 56.5677 38.7715 52.3002 39.0699C48.1366 39.3507 43.86 39.3507 39.7034 39.0699C35.4324 38.7715 31.2372 38.04 27.2344 36.8937C15.1268 33.4216 15.105 31.1282 15.1086 31.1043C15.321 29.6181 19.69 27.9689 27.6681 27.5188Z" fill="#a5b4fc"/>
<path d="M86.1706 73.361L83.3012 64.1298L83.3005 64.1291C82.7797 62.4548 81.3212 61.2088 79.5854 60.9539L69.7808 59.5141L69.5716 60.9364L69.6643 59.3548L71.1733 51.5072C71.3418 50.6255 70.821 49.7634 69.9633 49.5023L62.1477 47.1155C61.2395 46.8389 60.2933 47.3254 59.9852 48.2113L57.1215 56.3678C56.986 56.7532 56.7165 57.0782 56.3635 57.2825L48.4413 61.8651C46.935 62.7363 45.0652 62.7349 43.5589 61.8651L35.6374 57.2832C35.283 57.0782 35.0134 56.7525 34.878 56.3685L32.015 48.2127C31.7033 47.3247 30.7523 46.8396 29.8489 47.1162L22.0355 49.503C21.1743 49.7662 20.6556 50.6304 20.8276 51.5093L22.3352 59.3548L22.2187 59.5141L12.4154 60.9539C10.6783 61.2088 9.21974 62.4555 8.69894 64.1298L5.83033 73.3589C5.55027 74.2568 6.02475 75.2094 6.90772 75.5274L12.3088 77.4782C23.1936 81.4101 34.6183 83.375 46.0443 83.375C57.6437 83.375 69.2445 81.3491 80.2733 77.2985L85.0995 75.526C85.9775 75.2045 86.4478 74.2533 86.1706 73.361ZM79.2822 74.6001C58.0227 82.4056 34.586 82.4673 13.2858 74.7742L8.89407 73.1876L11.4447 64.9834C11.6384 64.3586 12.1831 63.8939 12.8331 63.7984L22.637 62.3586C23.447 62.24 24.1833 61.7886 24.6571 61.1217C25.1294 60.4555 25.3126 59.6131 25.1582 58.8114L23.8415 51.9579L29.6594 50.1811L32.1659 57.3211C32.528 58.3523 33.2496 59.2228 34.1971 59.7718L42.1201 64.3544C44.5121 65.7388 47.4867 65.7402 49.8801 64.3544L57.803 59.7718C58.7499 59.2235 59.4707 58.353 59.8336 57.3211L62.3408 50.1811L68.1587 51.9579L66.8413 58.8114C66.6868 59.6131 66.87 60.4555 67.3424 61.1217C67.8162 61.7886 68.5525 62.24 69.3624 62.3586L79.1678 63.7984C79.8164 63.8939 80.361 64.3593 80.5562 64.9841L83.1082 73.1947L79.2822 74.6001Z" fill="#a5b4fc"/>
</g>
<defs>
<clipPath id="clip0">
<rect width="92" height="92" fill="white"/>
</clipPath>
</defs>
</svg>
